<svg width="1965" height="399" viewBox="0 0 1965 399" fill="none" xmlns="http://www.w3.org/2000/svg">
<g clip-path="url(#clip0_446_67)">
<path d="M1520.63 261.201C1522.18 261.239 1523.73 261.277 1525.32 261.316C1566.9 262.335 1608.44 263.738 1649.98 265.615C1649.98 266.447 1649.98 267.279 1649.98 268.137C1648.82 268.133 1647.67 268.13 1646.48 268.126C1517.58 267.744 1388.69 267.558 1259.8 269.792C1258.59 269.813 1257.38 269.834 1256.14 269.855C1221.04 270.466 1185.95 271.157 1150.86 271.92C1149.9 271.941 1148.93 271.962 1147.94 271.983C1102.24 272.98 1056.55 274.178 1010.85 275.59C1006.02 275.738 1001.18 275.884 996.344 276.029C892.608 279.145 788.862 283.463 685.247 289.388C682.042 289.571 678.836 289.752 675.631 289.933C673.621 290.046 671.612 290.16 669.602 290.274C668.758 290.322 667.914 290.369 667.044 290.418C631.02 292.474 595.014 294.901 559.016 297.377C558.079 297.441 557.143 297.506 556.178 297.572C522.567 299.887 488.979 302.473 455.4 305.208C451.936 305.49 448.471 305.772 445.007 306.053C418.612 308.197 392.242 310.502 365.891 313.131C360.226 313.695 354.559 314.24 348.892 314.785C339.476 315.695 330.061 316.619 320.647 317.548C314.801 318.124 308.954 318.696 303.106 319.257C251.173 324.243 199.447 330.783 147.763 337.863C146.902 337.981 146.041 338.099 145.153 338.22C136.075 339.462 126.999 340.713 117.925 341.985C114.982 342.393 112.038 342.8 109.094 343.208C107.772 343.396 106.45 343.585 105.087 343.779C98.1643 344.731 91.5389 345.255 84.5508 345.06C87.8348 341.774 90.358 341.512 94.8753 340.439C95.68 340.247 96.4847 340.054 97.3138 339.855C100.015 339.214 102.72 338.589 105.426 337.966C106.377 337.746 107.328 337.525 108.308 337.298C216.019 312.401 326.529 299.748 612.662 274.442C613.844 274.36 615.027 274.278 616.245 274.193C733.715 266.04 851.429 261.737 1019.62 258.113C1025.44 258.042 1031.26 257.962 1037.07 257.882C1152.01 256.315 1266.91 256.379 1520.63 261.201Z" fill="#DFBE5C"/>
<path d="M595.438 135.584C597.298 135.584 599.158 135.591 601.018 135.604C601.995 135.606 602.973 135.608 603.98 135.609C607.114 135.616 610.247 135.632 613.381 135.648C615.501 135.655 617.62 135.66 619.74 135.666C624.947 135.68 630.153 135.701 635.36 135.727C639.893 146.221 643.304 157.039 646.705 167.938C647.657 170.984 648.62 174.026 649.584 177.068C650.193 179.009 650.802 180.951 651.411 182.893C651.698 183.799 651.985 184.705 652.282 185.639C653.424 189.323 654.266 192.375 654.266 196.257C655.098 196.257 655.93 196.257 656.787 196.257C656.925 195.045 657.063 193.833 657.206 192.584C658.044 186.742 659.721 181.214 661.435 175.578C661.766 174.474 662.097 173.37 662.438 172.232C663.134 169.914 663.833 167.598 664.535 165.282C665.614 161.723 666.681 158.161 667.747 154.598C668.426 152.344 669.105 150.089 669.785 147.835C670.106 146.766 670.426 145.697 670.756 144.595C673.027 137.134 673.027 137.134 674.433 135.727C677.321 135.616 680.213 135.592 683.103 135.604C684.402 135.607 684.402 135.607 685.726 135.609C688.5 135.616 691.274 135.632 694.048 135.648C695.925 135.655 697.802 135.66 699.678 135.666C704.288 135.68 708.897 135.701 713.506 135.727C716.027 143.737 718.539 151.75 721.045 159.764C721.899 162.491 722.755 165.218 723.613 167.944C724.844 171.858 726.069 175.774 727.292 179.691C727.678 180.913 728.064 182.134 728.462 183.393C728.815 184.529 729.168 185.665 729.532 186.835C729.846 187.835 730.159 188.834 730.482 189.864C731.152 192.474 731.152 192.474 731.152 196.257C731.984 196.257 732.816 196.257 733.673 196.257C733.944 194.657 734.216 193.058 734.495 191.41C736.398 181.898 739.371 172.693 742.239 163.438C743.213 160.291 744.178 157.142 745.142 153.992C745.758 151.989 746.374 149.986 746.991 147.983C747.425 146.572 747.425 146.572 747.867 145.133C749.911 138.544 749.911 138.544 751.319 135.727C765.877 135.727 780.435 135.727 795.434 135.727C793.119 144.22 790.792 152.553 788.004 160.877C787.661 161.91 787.318 162.943 786.965 164.008C785.85 167.367 784.729 170.723 783.608 174.08C782.825 176.432 782.042 178.784 781.259 181.136C779.628 186.036 777.994 190.935 776.358 195.832C774.258 202.122 772.164 208.414 770.073 214.707C768.462 219.55 766.848 224.392 765.233 229.233C764.459 231.555 763.686 233.876 762.914 236.199C761.841 239.427 760.763 242.653 759.684 245.879C759.364 246.843 759.044 247.807 758.715 248.8C756.505 255.381 756.505 255.381 755.1 256.786C751.831 256.898 748.596 256.932 745.327 256.909C744.35 256.908 743.372 256.906 742.365 256.904C739.232 256.897 736.098 256.881 732.964 256.865C730.845 256.859 728.725 256.853 726.605 256.848C721.399 256.834 716.192 256.812 710.985 256.786C704.747 238.398 698.988 219.879 693.339 201.301C693.022 202.444 692.705 203.587 692.378 204.765C691.178 209.081 689.975 213.396 688.77 217.71C688.253 219.564 687.737 221.417 687.223 223.272C684.092 234.552 680.799 245.723 676.954 256.786C672.781 257.718 668.918 258.209 664.645 258.215C662.961 258.217 662.961 258.217 661.243 258.22C660.084 258.215 658.926 258.21 657.732 258.205C656.593 258.21 655.454 258.215 654.281 258.22C652.013 258.217 649.746 258.186 647.479 258.127C645.315 258.075 643.148 258.082 640.985 258.155C637.895 258.115 635.725 257.889 632.839 256.786C631.399 254.64 631.399 254.64 630.29 251.857C629.874 250.827 629.458 249.796 629.029 248.735C626.977 243.243 624.998 237.736 623.105 232.186C622.674 230.935 622.242 229.684 621.798 228.395C620.879 225.731 619.963 223.065 619.049 220.399C616.667 213.454 614.27 206.513 611.874 199.572C611.402 198.201 610.929 196.83 610.442 195.418C605.897 182.245 601.252 169.109 596.569 155.984C596.062 154.561 595.554 153.138 595.031 151.672C594.6 150.467 594.168 149.263 593.724 148.021C592.436 144.357 591.203 140.677 589.984 136.988C591.245 135.727 591.245 135.727 595.438 135.584Z" fill="#F1CD5B"/>
<path d="M1392.84 90.3311C1408.23 90.3311 1423.62 90.3311 1439.48 90.3311C1439.48 105.312 1439.48 120.293 1439.48 135.728C1443.64 133.231 1447.79 130.734 1452.08 128.162C1462.94 123.653 1477.59 124.073 1488.63 128.162C1501.8 134.168 1509.15 143.314 1514.18 156.712C1515.95 162.457 1516.54 167.842 1516.66 173.845C1516.69 175.402 1516.73 176.959 1516.76 178.563C1516.79 180.249 1516.82 181.936 1516.85 183.622C1516.88 185.36 1516.91 187.098 1516.95 188.836C1517.01 192.468 1517.07 196.101 1517.13 199.733C1517.21 204.394 1517.3 209.054 1517.4 213.714C1517.47 217.298 1517.53 220.882 1517.59 224.466C1517.62 226.185 1517.65 227.904 1517.69 229.623C1517.74 232.02 1517.78 234.416 1517.81 236.813C1517.85 238.86 1517.85 238.86 1517.88 240.947C1517.62 244.176 1517.62 244.176 1515.1 246.698C1511.76 246.919 1508.55 246.99 1505.2 246.945C1504.23 246.941 1503.25 246.938 1502.25 246.934C1499.13 246.92 1496.01 246.888 1492.89 246.856C1490.77 246.843 1488.66 246.832 1486.54 246.822C1481.36 246.794 1476.17 246.75 1470.99 246.698C1470.98 245.881 1470.97 245.063 1470.96 244.221C1470.88 235.69 1470.78 227.159 1470.66 218.629C1470.61 215.447 1470.58 212.266 1470.55 209.085C1470.51 204.505 1470.44 199.926 1470.37 195.346C1470.36 193.93 1470.35 192.513 1470.35 191.054C1470.2 183.467 1469.78 177.665 1465.94 171.037C1461.99 168.402 1461.07 168.195 1456.57 168.278C1455.61 168.286 1454.65 168.295 1453.66 168.303C1450.84 168.513 1448.44 168.822 1445.78 169.776C1444.21 172.814 1444.21 172.814 1443.26 176.081C1442.84 176.913 1442.43 177.745 1442 178.603C1441.85 180.779 1441.77 182.96 1441.74 185.14C1441.71 186.503 1441.69 187.867 1441.66 189.271C1441.63 191.486 1441.63 191.486 1441.6 193.745C1441.57 195.253 1441.55 196.761 1441.52 198.314C1441.44 203.146 1441.36 207.977 1441.29 212.808C1441.23 216.077 1441.18 219.347 1441.12 222.616C1440.99 230.643 1440.86 238.671 1440.74 246.698C1425.35 246.698 1409.96 246.698 1394.1 246.698C1393.88 235.297 1393.67 223.895 1393.47 212.493C1393.46 211.631 1393.44 210.77 1393.43 209.882C1392.94 181.432 1392.73 152.99 1392.76 124.536C1392.76 123.668 1392.76 122.8 1392.76 121.906C1392.78 111.381 1392.81 100.856 1392.84 90.3311Z" fill="#1E1E1E"/>
<path d="M436.682 143.057C446.693 151.315 451.503 162.134 452.889 175.028C453.095 178.073 453.24 181.114 453.358 184.163C453.407 185.305 453.456 186.446 453.507 187.622C454.055 201.767 453.993 215.915 453.934 230.068C453.928 232.802 453.922 235.537 453.917 238.272C453.905 244.863 453.88 251.455 453.856 258.047C438.466 258.047 423.076 258.047 407.22 258.047C405.854 227.134 405.854 227.134 405.959 213.674C407.395 196.027 407.395 196.027 401.627 180.73C396.383 177.275 393.401 176.918 387.053 177.341C382.043 178.98 380.061 180.139 377.404 184.725C374.751 191.394 375.267 198.323 375.384 205.389C375.393 206.857 375.401 208.325 375.41 209.837C375.439 214.506 375.494 219.173 375.552 223.841C375.596 228.536 375.635 233.231 375.667 237.926C375.688 240.844 375.718 243.762 375.755 246.679C375.767 247.989 375.78 249.298 375.792 250.647C375.807 251.805 375.821 252.963 375.835 254.156C375.709 256.786 375.709 256.786 374.449 258.047C370.997 258.158 367.576 258.192 364.124 258.17C363.091 258.168 362.057 258.166 360.993 258.164C357.679 258.157 354.366 258.141 351.052 258.125C348.811 258.119 346.57 258.113 344.329 258.108C338.824 258.094 333.318 258.072 327.813 258.047C325.695 253.808 326.39 249.018 326.41 244.357C326.409 243.2 326.409 242.044 326.409 240.852C326.41 237.018 326.42 233.183 326.43 229.348C326.432 226.694 326.434 224.04 326.435 221.386C326.44 214.392 326.452 207.397 326.466 200.402C326.479 193.269 326.485 186.135 326.491 179.001C326.505 164.997 326.527 150.992 326.553 136.988C341.526 136.988 356.5 136.988 371.928 136.988C372.552 141.358 372.552 141.358 373.188 145.815C373.861 145.313 374.534 144.811 375.227 144.293C393.691 131.158 417.717 129.902 436.682 143.057Z" fill="#F5D05C"/>
<path d="M1079.73 129.255C1080.67 129.254 1081.61 129.253 1082.58 129.252C1084.57 129.251 1086.56 129.253 1088.55 129.258C1091.61 129.265 1094.66 129.258 1097.72 129.25C1099.65 129.251 1101.58 129.253 1103.52 129.255C1104.43 129.253 1105.35 129.25 1106.29 129.247C1112.76 129.278 1112.76 129.278 1115.57 130.684C1116.37 161.079 1116.96 191.465 1116.99 221.872C1116.99 223.181 1116.99 224.491 1117 225.84C1117 229.53 1117 233.22 1117 236.911C1117 238.017 1117 239.122 1117 240.262C1116.97 247.814 1116.97 247.814 1115.57 249.22C1112.41 249.348 1109.28 249.397 1106.12 249.388C1105.17 249.389 1104.22 249.39 1103.25 249.392C1101.24 249.392 1099.24 249.39 1097.23 249.385C1094.15 249.378 1091.08 249.385 1088 249.393C1086.05 249.392 1084.11 249.39 1082.17 249.388C1081.24 249.39 1080.31 249.393 1079.36 249.396C1072.86 249.365 1072.86 249.365 1071.45 247.959C1071.4 245.438 1071.4 242.915 1071.45 240.393C1070.86 240.896 1070.26 241.398 1069.65 241.915C1058.21 251.079 1045.85 253.816 1031.25 252.733C1018.86 250.911 1008.61 245.295 1000.87 235.349C992.341 221.7 991.679 208.334 991.801 192.627C991.806 190.834 991.809 189.04 991.812 187.247C991.821 182.564 991.846 177.881 991.874 173.198C991.905 167.56 991.916 161.921 991.931 156.282C991.955 147.749 992.003 139.217 992.047 130.684C1007.44 130.684 1022.83 130.684 1038.68 130.684C1038.75 138.062 1038.75 138.062 1038.83 145.589C1038.88 150.36 1038.95 155.13 1039.01 159.9C1039.06 163.213 1039.09 166.525 1039.12 169.837C1039.16 174.602 1039.23 179.365 1039.3 184.13C1039.31 185.608 1039.31 187.086 1039.32 188.609C1039.48 198.634 1039.48 198.634 1043.72 207.606C1047.42 210.616 1051.68 210.722 1056.37 210.626C1060.6 209.778 1062.58 207.099 1065.15 203.823C1066.78 200.574 1066.61 198.171 1066.67 194.533C1066.7 193.119 1066.72 191.705 1066.75 190.249C1066.77 188.717 1066.79 187.186 1066.81 185.607C1066.84 184.044 1066.86 182.48 1066.89 180.868C1066.96 176.71 1067.02 172.551 1067.08 168.393C1067.15 164.149 1067.22 159.906 1067.29 155.663C1067.42 147.337 1067.55 139.01 1067.67 130.684C1071.51 128.763 1075.51 129.243 1079.73 129.255Z" fill="#1E1E1E"/>
<path d="M1215.13 126.9C1216.39 127.082 1217.65 127.264 1218.94 127.451C1232.1 129.906 1242.44 135.589 1250.11 146.771C1255.73 156.882 1258.14 167.43 1258.15 178.936C1258.15 180.471 1258.16 182.007 1258.16 183.589C1258.16 186.048 1258.16 186.048 1258.15 188.557C1258.15 190.268 1258.15 191.979 1258.16 193.689C1258.16 197.26 1258.15 200.831 1258.15 204.402C1258.14 208.988 1258.15 213.573 1258.15 218.159C1258.16 221.684 1258.16 225.209 1258.15 228.735C1258.15 231.251 1258.16 233.766 1258.16 236.282C1258.15 238.555 1258.15 238.555 1258.15 240.874C1258.15 242.215 1258.15 243.556 1258.14 244.938C1257.98 247.959 1257.98 247.959 1256.72 249.22C1253.36 249.331 1250.04 249.365 1246.68 249.343C1245.67 249.341 1244.66 249.339 1243.63 249.337C1240.41 249.33 1237.18 249.314 1233.96 249.298C1231.78 249.292 1229.6 249.286 1227.42 249.281C1222.06 249.267 1216.71 249.245 1211.35 249.22C1211.34 248.367 1211.33 247.515 1211.32 246.637C1211.21 237.759 1211.08 228.881 1210.95 220.003C1210.9 216.691 1210.86 213.378 1210.82 210.066C1210.76 205.302 1210.69 200.538 1210.61 195.774C1210.6 194.296 1210.58 192.817 1210.57 191.295C1210.4 181.564 1210.4 181.564 1207.57 172.297C1198.79 169.721 1198.79 169.721 1190 171.114C1185.78 173.787 1184.53 175.438 1182.36 179.863C1181.78 183.231 1181.78 183.231 1181.83 186.81C1181.81 188.168 1181.79 189.527 1181.77 190.927C1181.77 192.38 1181.76 193.833 1181.76 195.33C1181.73 197.58 1181.73 197.58 1181.7 199.874C1181.64 204.658 1181.6 209.442 1181.57 214.226C1181.53 219.028 1181.48 223.83 1181.42 228.632C1181.38 231.619 1181.36 234.607 1181.34 237.595C1181.32 239.609 1181.32 239.609 1181.3 241.664C1181.29 242.852 1181.28 244.04 1181.27 245.264C1181.1 247.959 1181.1 247.959 1179.84 249.22C1176.48 249.331 1173.15 249.365 1169.79 249.343C1168.78 249.341 1167.78 249.339 1166.74 249.337C1163.52 249.33 1160.3 249.314 1157.07 249.298C1154.89 249.292 1152.71 249.286 1150.53 249.281C1145.18 249.267 1139.82 249.245 1134.46 249.22C1134.3 238.978 1134.13 228.736 1133.97 218.494C1133.9 213.734 1133.82 208.974 1133.74 204.214C1133.42 184.702 1133.14 165.192 1133.09 145.677C1133.08 144.173 1133.07 142.668 1133.06 141.118C1133.06 139.756 1133.06 138.393 1133.06 136.989C1133.06 135.795 1133.05 134.602 1133.05 133.372C1133.2 130.683 1133.2 130.683 1134.46 129.422C1137.64 129.31 1140.78 129.276 1143.96 129.298C1145.39 129.301 1145.39 129.301 1146.84 129.304C1149.88 129.311 1152.93 129.327 1155.97 129.343C1158.03 129.349 1160.09 129.355 1162.15 129.36C1167.2 129.374 1172.26 129.396 1177.32 129.422C1177.94 134.415 1177.94 134.415 1178.58 139.51C1179.12 139.022 1179.65 138.535 1180.21 138.032C1189.7 130.124 1202.66 125.085 1215.13 126.9Z" fill="#1E1E1E"/>
<path d="M573.592 147.078C584.868 155.293 592.658 169.937 595.019 183.648C595.115 185.69 595.155 187.736 595.142 189.78C595.136 191.457 595.136 191.457 595.13 193.167C595.114 194.892 595.114 194.892 595.098 196.652C595.092 197.826 595.086 199.001 595.08 200.211C595.066 203.097 595.045 205.982 595.019 208.868C539.566 210.374 539.566 210.374 513.092 210.129C517.013 216.65 519.343 218.921 526.503 220.887C537.202 223.014 546.473 220.545 555.71 214.858C559.727 212.651 559.727 212.651 562.178 212.866C565.433 214.181 567.363 215.939 569.904 218.36C571.321 219.703 571.321 219.703 572.767 221.072C573.741 222.013 574.715 222.953 575.719 223.922C577.202 225.325 577.202 225.325 578.715 226.757C586.008 233.713 586.008 233.713 587.456 236.611C578.265 249.079 562.292 256.266 547.241 258.911C523.927 261.296 501.712 258.069 482.842 243.074C478.149 238.627 474.769 233.323 471.498 227.784C471.002 226.964 470.507 226.145 469.996 225.301C461.431 209.87 462.796 192.292 467.382 175.889C469.392 169.367 472.489 163.901 476.54 158.427C477.123 157.616 477.706 156.805 478.307 155.969C500.433 127.701 546.159 127.749 573.592 147.078ZM515.613 174.82C512.615 178.866 512.615 178.866 511.831 183.648C524.309 183.648 536.788 183.648 549.644 183.648C546.037 174.242 546.037 174.242 538.3 169.776C529.614 168.62 522.27 168.501 515.613 174.82Z" fill="#F2CE5B"/>
<path d="M158.919 147.076C168.865 155.564 173.483 165.832 175.305 178.602C175.41 181.318 175.453 184.036 175.448 186.754C175.448 189.139 175.448 189.139 175.448 191.572C175.441 193.288 175.435 195.004 175.428 196.719C175.426 198.49 175.424 200.26 175.423 202.03C175.418 206.67 175.405 211.31 175.391 215.949C175.378 220.691 175.373 225.434 175.366 230.176C175.353 239.466 175.331 248.756 175.305 258.047C170.711 259.298 166.594 259.471 161.819 259.475C159.378 259.478 159.378 259.478 156.888 259.48C156.046 259.477 155.203 259.475 154.335 259.472C151.746 259.465 149.158 259.472 146.569 259.48C144.946 259.478 143.324 259.477 141.652 259.475C140.16 259.474 138.667 259.472 137.129 259.471C133.711 259.308 133.711 259.308 132.45 258.047C131.987 255.111 131.565 252.168 131.19 249.219C130.655 249.722 130.121 250.224 129.57 250.742C119.102 260.202 109.895 261.814 95.8978 261.83C84.4183 260.941 73.6063 256.662 65.7263 248.116C58.5794 239.098 56.067 229.517 57.1396 218.132C58.2666 211.438 60.009 206.628 64.3871 201.3C65.2791 200.191 65.2791 200.191 66.1891 199.059C74.027 190.186 84.3922 187.336 95.8978 186.168C101.335 186.025 106.766 186.049 112.205 186.089C113.668 186.095 115.131 186.101 116.638 186.107C120.228 186.121 123.818 186.142 127.409 186.168C125.423 180.066 125.423 180.066 121.175 175.651C108.715 172.233 98.0943 173.171 85.8144 177.341C84.703 178.009 83.5917 178.677 82.4467 179.366C79.5122 181.124 79.5122 181.124 75.731 181.124C71.5715 170.721 67.4121 160.317 63.1267 149.598C91.1406 132.081 130.253 128.524 158.919 147.076ZM102.358 216.118C100.376 220.083 100.953 222.333 102.2 226.521C103.404 228.988 103.404 228.988 105.981 230.304C111.663 231.609 114.651 232.055 120.161 230.146C124.049 227.494 126.306 225.568 128.669 221.477C129.07 217.996 128.908 214.913 128.669 211.389C125.86 211.32 123.05 211.272 120.24 211.231C118.675 211.202 117.111 211.173 115.498 211.142C110.026 211.444 106.385 212.357 102.358 216.118Z" fill="#F1CD5C"/>
<path d="M958.029 140.771C968.936 150.195 973.69 163.398 975.675 177.341C975.995 183.088 975.97 188.817 975.921 194.571C975.917 196.177 975.914 197.783 975.91 199.437C975.899 203.662 975.876 207.886 975.848 212.111C975.822 216.44 975.81 220.769 975.798 225.097C975.772 233.558 975.723 242.019 975.675 250.48C955.086 251.104 955.086 251.104 934.081 251.741C933.249 248.828 932.417 245.915 931.56 242.914C930.598 243.85 929.637 244.787 928.646 245.751C919.639 253.141 909.105 255.081 897.701 254.662C885.971 253.479 875.64 249.183 867.501 240.446C859.269 230.017 858.422 219.367 859.716 206.344C862.247 197.7 867.091 190.821 874.841 186.168C891.655 178.255 909.569 178.019 927.779 177.341C924.431 172.626 922.08 170.015 916.435 168.514C905.277 167.542 895.42 168.583 885.161 173.085C881.144 174.819 881.144 174.819 877.362 174.819C873.203 164.831 869.044 154.844 864.758 144.554C869.087 140.223 873.115 138.218 878.623 135.727C879.404 135.372 880.186 135.018 880.991 134.653C904.41 124.968 937.122 126.022 958.029 140.771ZM915.726 205.477C914.295 205.551 912.863 205.624 911.389 205.699C907.659 206.057 907.659 206.057 905.249 208.014C902.814 211.643 903.306 214.749 903.831 218.955C905.597 221.648 905.597 221.648 908.873 222.738C915.624 223.381 919.79 223.331 925.258 218.955C928.763 215.569 929.026 214.175 929.276 209.182C929.198 207.829 929.12 206.477 929.039 205.083C924.577 205.083 920.18 205.219 915.726 205.477Z" fill="#1E1E1E"/>
<path d="M1638.94 142.821C1650.82 155.35 1654.76 171.894 1655.01 188.691C1654.6 192.02 1654.18 195.349 1653.75 198.779C1627.55 198.779 1601.34 198.779 1574.35 198.779C1579.75 207.052 1579.75 207.052 1588.21 210.128C1599.33 211.436 1607.83 210.097 1617.2 203.823C1618.45 202.575 1618.45 202.575 1619.72 201.301C1623.66 201.737 1625.83 203.133 1628.66 205.818C1629.36 206.474 1630.06 207.13 1630.78 207.806C1631.5 208.494 1632.22 209.182 1632.95 209.892C1633.67 210.565 1634.39 211.239 1635.13 211.933C1638.88 215.473 1642.56 219.068 1646.19 222.738C1643.33 231.391 1636.78 235.364 1629.07 239.703C1609.18 249.375 1588.17 250.745 1567.21 244.412C1552.63 239.222 1540.38 229.565 1532.98 215.798C1532.49 214.759 1532 213.72 1531.49 212.65C1531.06 211.754 1530.64 210.859 1530.2 209.936C1525.28 197.044 1525.38 177.713 1530.28 164.835C1530.68 163.968 1531.08 163.102 1531.49 162.209C1531.91 161.278 1532.32 160.346 1532.75 159.387C1540.58 143.677 1553.01 133.633 1569.3 127.767C1593.73 120.296 1619.94 125.465 1638.94 142.821ZM1575.21 166.702C1572.85 169.498 1572.85 169.498 1573.09 172.297C1585.15 172.297 1597.21 172.297 1609.64 172.297C1606.02 164.309 1606.02 164.309 1599.55 159.687C1589.49 158.444 1582.26 158.883 1575.21 166.702Z" fill="#1E1E1E"/>
<path d="M1767.23 131.945C1765.33 143.564 1760.5 153.981 1755.89 164.732C1750.98 164.732 1748.61 164.062 1744.15 162.289C1733.04 158.15 1722.3 157.907 1710.51 158.427C1709.26 159.051 1709.26 159.051 1707.99 159.688C1707.99 160.936 1707.99 162.185 1707.99 163.471C1709.96 163.973 1711.93 164.471 1713.9 164.969C1715.27 165.316 1716.63 165.664 1718.04 166.023C1721.87 166.974 1725.71 167.82 1729.57 168.643C1758.05 174.826 1758.05 174.826 1765.97 185.697C1771.5 196.085 1771.97 206.868 1768.61 218.006C1763.83 230.004 1754.35 237.172 1742.76 242.3C1717.78 251.489 1691.76 248.461 1667.66 237.872C1665.53 236.652 1663.42 235.404 1661.36 234.089C1664.82 223.44 1668.35 212.892 1672.7 202.563C1677.02 203.3 1680.62 204.441 1684.59 206.267C1696.47 211.111 1710.5 213.028 1723.12 210.129C1723.95 209.297 1724.78 208.465 1725.64 207.607C1721.73 205.001 1719.58 204.466 1715.04 203.681C1713.01 203.309 1713.01 203.309 1710.94 202.93C1708.12 202.429 1705.29 201.936 1702.47 201.452C1688.28 198.822 1677.37 194.488 1668.92 182.386C1663.58 173.94 1664.22 164.368 1665.14 154.644C1667.53 144.807 1673.92 136.546 1682.32 131.029C1709.06 116.566 1740.31 120.095 1767.23 131.945Z" fill="#1E1E1E"/>
<path d="M1370.84 137.939C1377.52 142.965 1383.25 148.063 1386.55 155.903C1386.55 157.152 1386.55 158.4 1386.55 159.687C1383.73 161.908 1383.73 161.908 1379.86 164.337C1373.14 168.618 1366.82 173.199 1360.56 178.134C1357.56 179.863 1357.56 179.863 1354.84 179.73C1351.66 178.183 1350.06 175.649 1347.91 172.927C1343.87 168.403 1339.55 167.352 1333.69 166.701C1327.85 166.958 1324.43 168.809 1319.75 172.297C1315.74 178.047 1314.53 184.283 1314.71 191.212C1316.09 198.824 1318.72 203.878 1324.79 208.867C1330.56 211.752 1338.08 210.729 1344.01 208.788C1348.5 205.624 1351.7 201.844 1355.04 197.517C1359.73 199.228 1363.62 201.359 1367.75 204.148C1368.92 204.936 1370.1 205.724 1371.31 206.537C1372.52 207.358 1373.73 208.179 1374.97 209.024C1376.21 209.855 1377.44 210.686 1378.71 211.541C1381.75 213.587 1384.78 215.638 1387.81 217.694C1383.68 231.191 1373.3 238.71 1361.34 245.436C1346.24 252.719 1326.78 252.939 1310.77 248.431C1303.52 245.79 1297.07 242.293 1290.76 237.87C1289.97 237.345 1289.19 236.82 1288.38 236.279C1278.51 228.874 1271.24 215.853 1268.58 203.916C1265.94 183.703 1269.31 166.385 1281.25 149.534C1289.65 139.023 1301.58 131.211 1314.71 128.161C1315.64 127.932 1316.58 127.702 1317.54 127.466C1336.09 124.435 1355.27 127.163 1370.84 137.939Z" fill="#1E1E1E"/>
<path d="M265.44 97.7539C267.407 97.7541 269.373 97.7613 271.34 97.7739C272.89 97.7766 272.89 97.7766 274.472 97.7793C277.785 97.7864 281.099 97.8022 284.412 97.8183C286.653 97.8246 288.894 97.8303 291.136 97.8355C296.641 97.8494 302.146 97.8712 307.652 97.8971C308.862 135.229 309.025 172.544 308.991 209.892C308.989 211.674 308.989 211.674 308.988 213.491C308.973 228.343 308.944 243.195 308.912 258.047C293.106 258.047 277.3 258.047 261.016 258.047C259.986 222.116 259.613 186.228 259.6 150.285C259.598 146.75 259.593 143.215 259.588 139.68C259.581 134.055 259.58 128.43 259.586 122.805C259.587 120.696 259.586 118.588 259.583 116.479C259.58 113.579 259.585 110.678 259.592 107.777C259.593 106.137 259.594 104.496 259.595 102.806C259.829 97.4823 259.977 97.9307 265.44 97.7539Z" fill="#EECA59"/>
<path d="M808.769 92.6772C809.751 92.6798 810.733 92.6823 811.745 92.6849C812.747 92.6837 813.75 92.6825 814.783 92.6813C816.906 92.6804 819.029 92.6828 821.153 92.688C824.414 92.6948 827.676 92.6881 830.937 92.68C832.995 92.6808 835.053 92.6825 837.111 92.6849C838.093 92.6824 839.075 92.6798 840.087 92.6772C846.971 92.7075 846.971 92.7075 848.376 94.1134C848.497 96.1558 848.53 98.2034 848.528 100.249C848.53 101.577 848.531 102.905 848.533 104.274C848.526 106.478 848.526 106.478 848.519 108.726C848.52 110.264 848.52 111.802 848.52 113.386C848.519 117.614 848.513 121.843 848.504 126.071C848.496 130.486 848.495 134.9 848.494 139.315C848.49 147.679 848.48 156.044 848.467 164.409C848.453 173.93 848.446 183.451 848.44 192.972C848.426 212.562 848.404 232.152 848.376 251.742C841.961 251.984 835.545 252.209 829.128 252.419C826.944 252.493 824.761 252.571 822.577 252.654C819.443 252.773 816.308 252.875 813.173 252.973C812.193 253.014 811.214 253.054 810.205 253.096C807.804 253.163 805.401 253.095 803.001 253.003C800.48 250.481 800.48 250.481 800.166 247.732C800.167 246.583 800.168 245.434 800.168 244.25C800.163 242.932 800.158 241.615 800.152 240.258C800.159 238.807 800.167 237.355 800.174 235.86C800.171 234.337 800.169 232.813 800.167 231.244C800.163 227.06 800.17 222.876 800.183 218.691C800.194 214.32 800.192 209.948 800.191 205.576C800.192 198.235 800.203 190.894 800.221 183.552C800.24 175.054 800.247 166.556 800.246 158.057C800.245 149.894 800.252 141.731 800.262 133.568C800.267 130.088 800.269 126.608 800.27 123.128C800.271 118.276 800.283 113.423 800.297 108.571C800.296 107.117 800.296 105.663 800.295 104.166C800.301 102.852 800.306 101.538 800.311 100.184C800.314 99.0358 800.316 97.8871 800.318 96.7036C800.653 91.3447 804.233 92.6971 808.769 92.6772Z" fill="#1E1E1E"/>
<path d="M205.315 97.7292C206.288 97.728 207.261 97.7268 208.263 97.7255C210.319 97.7247 212.376 97.727 214.432 97.7323C217.591 97.739 220.75 97.7323 223.909 97.7243C225.904 97.7251 227.899 97.7267 229.893 97.7292C230.844 97.7266 231.794 97.7241 232.774 97.7215C239.433 97.7517 239.433 97.7517 240.838 99.1577C240.959 101.216 240.992 103.28 240.99 105.341C240.992 106.68 240.993 108.019 240.995 109.398C240.988 111.62 240.988 111.62 240.981 113.887C240.982 115.436 240.982 116.986 240.982 118.583C240.981 122.846 240.975 127.108 240.966 131.37C240.958 135.82 240.957 140.27 240.956 144.72C240.952 153.152 240.942 161.584 240.929 170.016C240.915 179.613 240.908 189.21 240.902 198.807C240.888 218.554 240.865 238.301 240.838 258.048C225.449 258.048 210.059 258.048 194.203 258.048C194.037 241.986 193.873 225.925 193.71 209.863C193.635 202.401 193.559 194.94 193.481 187.478C193.406 180.25 193.333 173.022 193.261 165.794C193.233 163.064 193.205 160.334 193.176 157.604C192.972 138.121 192.907 118.642 192.943 99.1577C196.862 97.1971 201.015 97.7176 205.315 97.7292Z" fill="#F1CD5B"/>
<path d="M1455.87 260.571C1481.43 260.367 1506.96 260.95 1532.51 261.589C1535.94 261.675 1539.37 261.759 1542.8 261.843C1578.54 262.719 1614.26 263.867 1649.98 265.615C1649.98 266.447 1649.98 267.279 1649.98 268.137C1625.48 268.166 1600.98 268.188 1576.48 268.202C1565.11 268.209 1553.73 268.217 1542.35 268.232C1532.44 268.244 1522.52 268.253 1512.61 268.255C1507.36 268.257 1502.11 268.261 1496.86 268.27C1491.92 268.279 1486.97 268.281 1482.03 268.279C1480.22 268.28 1478.4 268.282 1476.59 268.287C1474.11 268.293 1471.63 268.291 1469.15 268.288C1467.77 268.29 1466.38 268.291 1464.95 268.292C1460.59 268.125 1456.39 267.562 1452.09 266.876C1452.09 266.46 1452.09 266.043 1452.09 265.615C1461.24 265.615 1470.39 265.615 1479.82 265.615C1479.4 264.782 1478.99 263.95 1478.56 263.093C1471.07 262.677 1463.58 262.26 1455.87 261.832C1455.87 261.415 1455.87 260.999 1455.87 260.571Z" fill="#9B8241"/>
<path d="M1861.74 216.434C1862.57 216.017 1863.4 215.601 1864.26 215.173C1869.36 214.846 1871.24 214.789 1875.6 217.695C1879.77 217.338 1879.77 217.338 1883.16 215.173C1892.11 214.277 1892.11 214.277 1896.95 218.089C1900.92 223.268 1901.01 227.166 1901.05 233.536C1901.06 234.994 1901.08 236.453 1901.1 237.955C1900.81 241.654 1900.81 241.654 1898.29 244.176C1896.63 243.76 1894.96 243.344 1893.25 242.915C1892.42 236.673 1891.58 230.431 1890.73 224C1887.16 222.444 1887.16 222.444 1884.25 223.359C1881.46 225.205 1881.46 225.205 1881.14 229.369C1881.05 231.783 1881.05 231.783 1880.96 234.246C1880.89 235.861 1880.82 237.477 1880.74 239.142C1880.71 240.387 1880.68 241.632 1880.64 242.915C1878.56 243.331 1876.48 243.747 1874.34 244.176C1872.2 237.456 1871.16 231.022 1870.56 224C1866.99 222.443 1866.99 222.443 1864.08 223.364C1861.29 225.2 1861.29 225.2 1861.01 229.325C1860.97 230.923 1860.92 232.52 1860.87 234.167C1860.56 242.829 1860.56 242.829 1859.22 244.176C1857.14 244.176 1855.06 244.176 1852.91 244.176C1852.91 235.021 1852.91 225.866 1852.91 216.434C1856.28 214.751 1858.12 215.711 1861.74 216.434Z" fill="#1E1E1E"/>
<path d="M1138.54 129.279C1140.35 129.279 1142.15 129.287 1143.96 129.299C1145.39 129.302 1145.39 129.302 1146.84 129.305C1149.88 129.312 1152.93 129.328 1155.97 129.344C1158.03 129.35 1160.09 129.356 1162.15 129.361C1167.2 129.375 1172.26 129.397 1177.32 129.422C1176.49 130.255 1175.65 131.087 1174.8 131.945C1161.9 131.945 1149.01 131.945 1135.72 131.945C1135.72 170.23 1135.72 208.515 1135.72 247.96C1138.84 247.335 1138.84 247.335 1142.03 246.699C1144.9 246.598 1147.77 246.563 1150.64 246.575C1152.27 246.58 1153.9 246.584 1155.57 246.588C1157.28 246.598 1158.99 246.609 1160.7 246.62C1162.43 246.626 1164.16 246.632 1165.89 246.637C1170.12 246.652 1174.35 246.673 1178.58 246.699C1178.57 245.917 1178.57 245.136 1178.56 244.33C1178.51 236.21 1178.47 228.089 1178.44 219.968C1178.43 216.935 1178.41 213.903 1178.39 210.871C1178.36 206.517 1178.34 202.163 1178.33 197.809C1178.32 196.449 1178.31 195.09 1178.29 193.689C1178.29 191.796 1178.29 191.796 1178.29 189.864C1178.29 188.753 1178.28 187.641 1178.28 186.496C1178.58 183.647 1178.58 183.647 1181.1 179.864C1181.13 189.539 1181.15 199.213 1181.17 208.888C1181.17 212.182 1181.18 215.477 1181.19 218.771C1181.21 223.494 1181.22 228.217 1181.22 232.941C1181.23 234.424 1181.24 235.907 1181.24 237.434C1181.24 238.798 1181.24 240.161 1181.24 241.565C1181.25 242.772 1181.25 243.979 1181.25 245.223C1181.1 247.96 1181.1 247.96 1179.84 249.221C1176.48 249.332 1173.15 249.366 1169.79 249.344C1168.78 249.342 1167.78 249.34 1166.74 249.338C1163.52 249.331 1160.3 249.316 1157.07 249.299C1154.89 249.293 1152.71 249.287 1150.53 249.282C1145.18 249.268 1139.82 249.247 1134.46 249.221C1134.3 238.979 1134.13 228.737 1133.97 218.495C1133.9 213.735 1133.82 208.975 1133.74 204.215C1133.42 184.703 1133.14 165.192 1133.09 145.678C1133.08 144.174 1133.07 142.669 1133.06 141.119C1133.06 139.757 1133.06 138.394 1133.06 136.99C1133.06 135.796 1133.05 134.602 1133.05 133.373C1133.3 128.969 1134.01 129.438 1138.54 129.279Z" fill="#1E1E1E"/>
<path d="M172.78 324.883C172.364 326.964 171.948 329.044 171.52 331.188C176.927 331.188 182.334 331.188 187.905 331.188C187.905 331.604 187.905 332.02 187.905 332.449C186.32 332.658 186.32 332.658 184.702 332.871C174.725 334.187 164.749 335.504 154.772 336.823C149.643 337.501 144.515 338.178 139.386 338.854C134.433 339.507 129.481 340.161 124.528 340.817C122.642 341.066 120.756 341.315 118.869 341.563C116.22 341.912 113.572 342.262 110.923 342.613C109.417 342.812 107.911 343.011 106.36 343.216C103.586 343.604 100.817 344.03 98.054 344.495C93.48 345.25 89.1801 345.139 84.5508 345.059C87.9247 341.684 90.7192 341.439 95.3628 340.35C96.2088 340.15 97.0547 339.95 97.9263 339.744C100.713 339.088 103.503 338.448 106.293 337.808C108.22 337.361 110.147 336.914 112.074 336.466C125.076 333.467 138.114 330.665 151.196 328.035C152.788 327.714 154.381 327.392 156.022 327.061C167.086 324.883 167.086 324.883 172.78 324.883Z" fill="#C5A84B"/>
<path d="M1840.35 216.469C1844.88 219.833 1847.15 222.797 1848.1 228.414C1848.31 234.136 1846.69 237.363 1842.82 241.655C1837.27 245.08 1831.51 245.213 1825.18 244.177C1821.62 241.415 1819.61 239.347 1817.61 235.35C1816.93 229.626 1816.83 225.319 1819.82 220.296C1825.75 214.856 1832.79 212.658 1840.35 216.469ZM1825.18 225.261C1824.7 229.577 1824.37 232.704 1826.59 236.532C1830.16 238.554 1832.5 238.541 1836.52 237.872C1839.49 234.519 1840.35 232.665 1840.14 228.178C1839.2 224.841 1839.2 224.841 1835.26 222.739C1830.52 222.266 1829.27 222.532 1825.18 225.261Z" fill="#1E1E1E"/>
<path d="M1810.07 216.433C1813.22 219.034 1813.22 219.034 1815.11 221.477C1814.7 222.726 1814.28 223.974 1813.85 225.26C1811.41 226.285 1811.41 226.285 1808.81 226.522C1807.98 225.689 1807.15 224.857 1806.29 223.999C1801.76 224.407 1801.76 224.407 1797.47 225.26C1797.47 228.59 1797.47 231.919 1797.47 235.349C1802.61 237.923 1808.44 236.624 1813.85 235.349C1814.27 237.013 1814.69 238.678 1815.11 240.393C1810.06 243.941 1806.72 245.93 1800.46 245.437C1795.29 244.519 1792.02 243.353 1788.65 239.132C1786.77 233.4 1786.61 228.334 1789.35 222.896C1795.44 215.096 1800.91 214.215 1810.07 216.433Z" fill="#1E1E1E"/>
<path d="M451.342 172.297C451.758 172.297 452.174 172.297 452.602 172.297C453.723 191.57 454.021 210.765 453.941 230.068C453.935 232.802 453.929 235.537 453.924 238.272C453.912 244.864 453.887 251.455 453.863 258.047C438.473 258.047 423.083 258.047 407.227 258.047C406.112 234.474 405.814 211.019 405.967 187.429C408.727 191.571 408.798 192.748 408.774 197.545C408.774 198.833 408.774 200.12 408.773 201.446C408.76 202.834 408.747 204.221 408.734 205.65C408.73 207.072 408.727 208.494 408.723 209.96C408.709 214.508 408.677 219.056 408.645 223.605C408.633 226.686 408.621 229.767 408.611 232.848C408.585 240.407 408.536 247.966 408.488 255.525C422.63 255.525 436.771 255.525 451.342 255.525C451.342 228.06 451.342 200.594 451.342 172.297Z" fill="#9B803A"/>
<path d="M1861.74 216.433C1862.57 216.017 1863.4 215.601 1864.26 215.172C1870.39 214.614 1874.07 215.917 1879.38 218.955C1879.38 219.787 1879.38 220.619 1879.38 221.477C1875.64 220.853 1875.64 220.853 1871.82 220.216C1872.23 220.86 1872.65 221.503 1873.07 222.167C1874.79 226.354 1874.58 229.893 1874.5 234.403C1874.48 235.996 1874.45 237.589 1874.43 239.23C1874.4 240.446 1874.37 241.662 1874.34 242.914C1873.92 242.914 1873.51 242.914 1873.08 242.914C1872.25 236.672 1871.42 230.43 1870.56 223.999C1866.99 222.442 1866.99 222.442 1864.08 223.364C1861.29 225.199 1861.29 225.199 1861.01 229.324C1860.97 230.922 1860.92 232.52 1860.87 234.166C1860.56 242.828 1860.56 242.828 1859.22 244.176C1857.14 244.176 1855.06 244.176 1852.91 244.176C1852.91 235.02 1852.91 225.865 1852.91 216.433C1856.28 214.75 1858.12 215.71 1861.74 216.433Z" fill="#1E1E1E"/>
<path d="M1805.03 217.695C1805.03 218.527 1805.03 219.359 1805.03 220.217C1802.95 220.217 1800.87 220.217 1798.72 220.217C1798.72 221.049 1798.72 221.882 1798.72 222.739C1797.48 222.739 1796.23 222.739 1794.94 222.739C1795.05 225 1795.19 227.259 1795.34 229.517C1795.41 230.775 1795.48 232.033 1795.56 233.33C1795.77 234.412 1795.98 235.495 1796.2 236.61C1800.55 239.506 1803.69 239.814 1808.81 240.393C1808.81 241.226 1808.81 242.058 1808.81 242.916C1802.01 244.652 1797.31 244.156 1790.96 241.019C1788.09 238.687 1787.59 237.313 1786.99 233.694C1786.9 227.469 1788.65 223.847 1792.42 218.956C1796.33 217.001 1800.71 217.597 1805.03 217.695Z" fill="#1E1E1E"/>
<path d="M129.926 334.971C128.665 336.232 128.665 336.232 124.805 336.311C123.584 336.285 122.362 336.259 121.103 336.232C121.103 337.064 121.103 337.897 121.103 338.754C121.992 338.548 122.88 338.341 123.796 338.129C127.527 337.472 130.947 337.369 134.731 337.414C135.961 337.426 137.191 337.437 138.458 337.449C139.85 337.471 139.85 337.471 141.27 337.493C141.27 337.909 141.27 338.325 141.27 338.754C134.814 339.661 128.357 340.558 121.899 341.448C119.705 341.751 117.512 342.057 115.32 342.365C112.154 342.81 108.987 343.246 105.82 343.68C104.368 343.887 104.368 343.887 102.887 344.098C96.7167 344.933 90.7776 345.183 84.5508 345.059C87.9269 341.681 90.7725 341.415 95.412 340.316C96.2358 340.12 97.0596 339.925 97.9083 339.724C99.6511 339.313 101.395 338.908 103.14 338.506C105.805 337.891 108.464 337.253 111.123 336.614C112.818 336.218 114.513 335.823 116.209 335.429C117.751 335.069 119.292 334.708 120.881 334.337C124.532 333.765 126.519 333.7 129.926 334.971Z" fill="#9F8841"/>
<path d="M1888.22 218.955C1886.97 218.955 1885.72 218.955 1884.43 218.955C1881.98 224.168 1881.45 228.753 1881.13 234.481C1881.03 236.063 1880.94 237.645 1880.84 239.274C1880.78 240.476 1880.72 241.677 1880.65 242.915C1878.57 243.331 1876.49 243.747 1874.35 244.176C1874.26 242.237 1874.26 242.237 1874.16 240.26C1874.07 238.544 1873.97 236.828 1873.88 235.112C1873.82 233.838 1873.82 233.838 1873.76 232.538C1873.47 227.534 1872.73 223.485 1870.57 218.955C1873.48 219.787 1876.39 220.62 1879.39 221.477C1879.39 220.645 1879.39 219.812 1879.39 218.955C1883.34 217.638 1884.42 217.777 1888.22 218.955Z" fill="#1E1E1E"/>
<path d="M374.451 186.169C375.72 189.975 375.872 192.518 375.875 196.497C375.879 197.83 375.883 199.164 375.887 200.538C375.884 201.977 375.882 203.415 375.879 204.897C375.88 206.372 375.882 207.847 375.883 209.367C375.884 212.486 375.881 215.604 375.876 218.723C375.869 223.516 375.876 228.309 375.884 233.103C375.883 236.127 375.882 239.152 375.879 242.176C375.882 243.62 375.884 245.063 375.887 246.551C375.881 248.539 375.881 248.539 375.875 250.568C375.874 251.741 375.873 252.914 375.872 254.123C375.712 256.786 375.712 256.786 374.451 258.047C370.999 258.159 367.579 258.193 364.127 258.171C363.094 258.169 362.06 258.167 360.996 258.165C357.682 258.158 354.369 258.142 351.055 258.126C348.814 258.12 346.573 258.114 344.332 258.109C338.827 258.095 333.322 258.073 327.816 258.047C327.816 257.631 327.816 257.215 327.816 256.786C342.79 256.37 357.764 255.954 373.191 255.525C373.176 250.73 373.162 245.935 373.147 240.994C373.137 236.366 373.129 231.737 373.122 227.109C373.115 223.885 373.107 220.66 373.096 217.436C373.081 212.81 373.074 208.184 373.068 203.557C373.058 201.384 373.058 201.384 373.048 199.167C373.048 197.829 373.048 196.491 373.048 195.112C373.045 193.931 373.042 192.749 373.039 191.532C373.191 188.691 373.191 188.691 374.451 186.169Z" fill="#957A37"/>
<path d="M1854.16 217.695C1855.41 217.695 1856.66 217.695 1857.94 217.695C1859.08 221.109 1859.35 223.039 1859.32 226.537C1859.32 227.492 1859.32 228.447 1859.31 229.431C1859.3 230.422 1859.29 231.413 1859.28 232.434C1859.27 233.439 1859.27 234.444 1859.26 235.48C1859.25 237.959 1859.23 240.437 1859.2 242.916C1857.54 242.916 1855.87 242.916 1854.16 242.916C1854.16 234.593 1854.16 226.27 1854.16 217.695Z" fill="#1E1E1E"/>
<path d="M1871.84 215.171C1876.09 217.062 1876.09 217.062 1879.4 218.954C1879.4 219.786 1879.4 220.618 1879.4 221.476C1875.66 220.852 1875.66 220.852 1871.84 220.215C1872.25 220.858 1872.67 221.502 1873.09 222.165C1874.81 226.353 1874.6 229.892 1874.52 234.401C1874.5 235.994 1874.47 237.587 1874.45 239.229C1874.42 240.445 1874.39 241.661 1874.36 242.913C1873.94 242.913 1873.53 242.913 1873.1 242.913C1872.93 241.577 1872.77 240.241 1872.59 238.864C1872.37 237.114 1872.14 235.364 1871.92 233.613C1871.81 232.732 1871.7 231.851 1871.59 230.943C1871 226.056 1871 226.056 1869.32 221.476C1866.41 221.476 1863.5 221.476 1860.5 221.476C1860.97 219.033 1860.97 219.033 1861.76 216.432C1865.33 214.646 1867.87 214.865 1871.84 215.171Z" fill="#1E1E1E"/>
<path d="M147.578 331.188C145.583 334.552 144.038 337.097 140.111 338.131C137.232 338.396 134.399 338.496 131.508 338.517C130.009 338.565 130.009 338.565 128.48 338.613C126.024 338.687 123.566 338.724 121.109 338.754C121.109 337.922 121.109 337.089 121.109 336.232C122.942 335.998 122.942 335.998 124.812 335.759C126.722 335.369 126.722 335.369 128.672 334.971C129.088 334.138 129.504 333.306 129.932 332.449C135.656 330.659 141.647 331.071 147.578 331.188Z" fill="#C8AA4C"/>
<path d="M1791.14 226.521C1791.97 226.937 1792.8 227.353 1793.66 227.782C1794.05 229.212 1794.44 230.642 1794.84 232.116C1795.75 236.902 1795.75 236.902 1799.96 239.131C1802.89 239.627 1805.83 240.057 1808.79 240.392C1808.79 241.224 1808.79 242.056 1808.79 242.914C1803.37 244.241 1799.93 244.614 1795.08 241.889C1791.14 239.131 1791.14 239.131 1789.88 236.609C1789.72 232.116 1789.72 232.116 1789.88 227.782C1790.3 227.365 1790.71 226.949 1791.14 226.521Z" fill="#1E1E1E"/>
<path d="M1839.07 231.564C1839.9 233.229 1840.73 234.894 1841.59 236.609C1842.84 236.609 1844.09 236.609 1845.37 236.609C1844.18 239.595 1843.39 241.312 1840.63 243.057C1837.38 244.346 1834.85 244.553 1831.35 244.569C1829.71 244.601 1829.71 244.601 1828.03 244.633C1827.1 244.482 1826.17 244.331 1825.2 244.175C1824.37 242.926 1823.54 241.678 1822.68 240.392C1828.92 241.64 1828.92 241.64 1835.29 242.914C1835.29 242.081 1835.29 241.249 1835.29 240.392C1834.3 240.47 1833.31 240.548 1832.29 240.628C1831.2 240.55 1830.11 240.472 1828.99 240.392C1828.15 239.143 1827.32 237.895 1826.46 236.609C1829.79 236.609 1833.12 236.609 1836.55 236.609C1837.38 234.944 1838.21 233.279 1839.07 231.564Z" fill="#1E1E1E"/>
<path d="M1888.05 214.701C1892.18 214.776 1893.02 214.989 1896.4 217.696C1897.02 218.528 1897.65 219.361 1898.29 220.218C1896.21 219.802 1894.13 219.386 1891.99 218.957C1892.4 220.206 1892.82 221.454 1893.25 222.74C1893.33 224.919 1893.36 227.101 1893.33 229.282C1893.32 230.418 1893.3 231.554 1893.29 232.725C1893.28 233.592 1893.26 234.458 1893.25 235.351C1892.83 235.351 1892.42 235.351 1891.99 235.351C1891.57 231.605 1891.16 227.86 1890.73 224.001C1886.98 223.377 1886.98 223.377 1883.17 222.74C1883.17 221.492 1883.17 220.243 1883.17 218.957C1882.33 218.541 1881.5 218.125 1880.64 217.696C1883.17 215.174 1883.17 215.174 1888.05 214.701Z" fill="#1E1E1E"/>
<path d="M160.181 328.665C158.933 329.081 157.685 329.498 156.4 329.926C155.984 331.175 155.568 332.423 155.139 333.709C155.971 333.709 156.803 333.709 157.66 333.709C157.66 334.542 157.66 335.374 157.66 336.232C150.173 336.856 150.173 336.856 142.535 337.493C143.783 335.828 145.031 334.163 146.316 332.448C145.069 331.616 143.821 330.784 142.535 329.926C144.528 329.466 146.524 329.023 148.522 328.587C149.633 328.338 150.745 328.089 151.89 327.833C155.123 327.406 157.119 327.642 160.181 328.665Z" fill="#B69B43"/>
<path d="M1820.16 225.26C1820.99 225.26 1821.82 225.26 1822.68 225.26C1823.02 226.846 1823.36 228.433 1823.7 230.067C1825.03 235.451 1825.03 235.451 1828.98 239.131C1832.27 240.042 1832.27 240.042 1835.28 240.392C1835.28 241.224 1835.28 242.057 1835.28 242.914C1827.35 243.372 1827.35 243.372 1823.39 241.338C1821.42 239.131 1821.42 239.131 1821.42 234.087C1820.59 234.087 1819.76 234.087 1818.9 234.087C1818.85 231.565 1818.85 229.042 1818.9 226.521C1819.31 226.105 1819.73 225.689 1820.16 225.26Z" fill="#1E1E1E"/>
<path d="M1808.79 235.349C1810.45 235.349 1812.12 235.349 1813.83 235.349C1814.25 237.013 1814.66 238.678 1815.09 240.393C1808.76 244.839 1805.01 245.963 1797.34 244.998C1794.92 244.176 1794.92 244.176 1792.4 240.393C1793.94 240.809 1795.47 241.225 1797.05 241.654C1801.06 242.667 1804.62 243.175 1808.79 242.915C1808.79 242.082 1808.79 241.25 1808.79 240.393C1805.88 240.393 1802.96 240.393 1799.96 240.393C1799.96 239.977 1799.96 239.56 1799.96 239.132C1801.8 238.547 1801.8 238.547 1803.67 237.949C1807.33 236.994 1807.33 236.994 1808.79 235.349Z" fill="#1E1E1E"/>
<path d="M714.748 269.398C714.748 269.814 714.748 270.23 714.748 270.659C712.76 270.932 712.76 270.932 710.731 271.21C708.105 271.598 705.481 272.02 702.892 272.604C699.444 273.213 696.435 273.212 692.942 273.028C691.712 272.967 690.481 272.906 689.213 272.843C687.308 272.737 687.308 272.737 685.365 272.629C684.071 272.563 682.777 272.497 681.444 272.43C678.26 272.267 675.077 272.097 671.895 271.92C671.895 271.504 671.895 271.088 671.895 270.659C686.201 269.731 700.412 269.222 714.748 269.398Z" fill="#957E3E"/>
<path d="M1778.56 235.349C1781.87 235.822 1781.87 235.822 1784.87 236.61C1785.65 238.974 1785.65 238.974 1786.13 241.654C1783.61 244.176 1783.61 244.176 1780.3 244.333C1779.31 244.281 1778.32 244.229 1777.3 244.176C1776.52 241.181 1776.52 241.181 1776.04 237.871C1776.87 237.038 1777.71 236.206 1778.56 235.349Z" fill="#1E1E1E"/>
<path d="M138.755 333.709C138.339 334.957 137.923 336.206 137.495 337.492C129.384 338.116 129.384 338.116 121.109 338.753C121.109 337.921 121.109 337.088 121.109 336.231C127.252 334.224 132.211 333.442 138.755 333.709Z" fill="#F3D56A"/>
<path d="M1839.03 231.564C1839.86 233.229 1840.69 234.894 1841.55 236.609C1842.8 236.609 1844.05 236.609 1845.33 236.609C1844.5 238.273 1843.67 239.938 1842.81 241.653C1841.98 241.653 1841.15 241.653 1840.29 241.653C1840.29 240.82 1840.29 239.988 1840.29 239.131C1836.13 239.131 1831.97 239.131 1827.69 239.131C1827.27 238.298 1826.85 237.466 1826.43 236.609C1829.75 236.609 1833.08 236.609 1836.51 236.609C1837.34 234.944 1838.17 233.279 1839.03 231.564Z" fill="#1E1E1E"/>
<path d="M1806.27 218.956C1810.01 219.58 1810.01 219.58 1813.83 220.217C1813.83 221.882 1813.83 223.546 1813.83 225.261C1811.47 226.049 1811.47 226.049 1808.79 226.522C1807.96 225.69 1807.13 224.858 1806.27 224C1806.27 222.336 1806.27 220.671 1806.27 218.956Z" fill="#BAB7B3"/>
<path d="M75.729 192.474C73.9042 196.817 71.5988 199.234 68.0091 202.247C66.6394 203.407 66.6394 203.407 65.2421 204.591C64.5434 205.17 63.8448 205.749 63.125 206.345C63.125 202.562 63.125 202.562 65.2421 199.986C66.6117 198.647 66.6117 198.647 68.0091 197.281C68.9157 196.379 69.8223 195.477 70.7563 194.547C73.2082 192.474 73.2082 192.474 75.729 192.474Z" fill="#BB9942"/>
<path d="M1293.31 138.25C1294.14 138.666 1294.97 139.082 1295.83 139.511C1291.25 144.089 1286.68 148.666 1281.96 153.382C1281.13 152.966 1280.3 152.55 1279.44 152.121C1280.8 150.513 1282.17 148.912 1283.54 147.314C1284.3 146.421 1285.06 145.529 1285.84 144.609C1288.17 142.135 1290.53 140.196 1293.31 138.25Z" fill="#A3A4A5"/>
<path d="M1884.41 218.956C1886.9 218.956 1889.4 218.956 1891.97 218.956C1893.24 222.758 1893.36 225.314 1893.31 229.281C1893.3 230.417 1893.29 231.553 1893.28 232.724C1893.26 233.59 1893.25 234.457 1893.23 235.349C1892.82 235.349 1892.4 235.349 1891.97 235.349C1891.56 231.604 1891.14 227.859 1890.71 224C1886.97 223.376 1886.97 223.376 1883.15 222.739C1883.56 221.491 1883.98 220.242 1884.41 218.956Z" fill="#1E1E1E"/>
<path d="M1891.98 218.956C1895.1 219.58 1895.1 219.58 1898.28 220.217C1898.28 221.465 1898.28 222.714 1898.28 224C1897.03 224.624 1897.03 224.624 1895.76 225.261C1895.17 228.232 1895.17 228.232 1894.97 231.645C1894.88 232.804 1894.78 233.963 1894.68 235.157C1894.62 236.053 1894.56 236.949 1894.5 237.871C1894.08 237.871 1893.67 237.871 1893.24 237.871C1892.82 231.629 1892.41 225.387 1891.98 218.956Z" fill="#1E1E1E"/>
<path d="M1672.66 202.562C1677.47 203.232 1680.3 204.45 1684 207.607C1680.26 207.607 1676.51 207.607 1672.66 207.607C1672.66 208.855 1672.66 210.103 1672.66 211.39C1671.83 211.39 1670.99 211.39 1670.14 211.39C1670.97 208.477 1671.8 205.564 1672.66 202.562Z" fill="#ACAAA6"/>
<path d="M1867.73 214.78C1872.37 215.226 1875.37 216.66 1879.39 218.957C1879.39 219.79 1879.39 220.622 1879.39 221.479C1877.31 221.063 1875.23 220.647 1873.09 220.218C1873.09 219.386 1873.09 218.554 1873.09 217.696C1869.34 217.696 1865.6 217.696 1861.74 217.696C1864.26 215.174 1864.26 215.174 1867.73 214.78Z" fill="#878385"/>
<path d="M102.197 342.536C102.197 342.952 102.197 343.368 102.197 343.797C96.1932 344.998 90.6428 345.163 84.5508 345.058C89.8096 339.797 95.3669 341.511 102.197 342.536Z" fill="#665727"/>
<path d="M1888.2 218.955C1886.96 218.955 1885.71 218.955 1884.42 218.955C1883.59 221.036 1882.76 223.116 1881.9 225.26C1880.24 225.26 1878.57 225.26 1876.86 225.26C1877.88 222.186 1877.88 222.186 1879.38 218.955C1883.33 217.638 1884.41 217.777 1888.2 218.955Z" fill="#E2E1DF"/>
<path d="M577.363 150.86C581.641 154.803 584.43 157.878 586.186 163.471C583.193 162.604 583.193 162.604 579.884 160.949C577.906 157.273 577.363 155.048 577.363 150.86Z" fill="#BC9E46"/>
<path d="M1551.68 138.25C1549.72 143.066 1546.69 146.145 1542.86 149.599C1542.02 149.599 1541.19 149.599 1540.34 149.599C1542.28 144.822 1546.07 138.25 1551.68 138.25Z" fill="#AFB0AF"/>
<path d="M1805.04 217.697C1805.04 218.529 1805.04 219.361 1805.04 220.219C1802.96 220.219 1800.88 220.219 1798.74 220.219C1798.74 221.051 1798.74 221.883 1798.74 222.741C1797.08 222.741 1795.41 222.741 1793.7 222.741C1794.12 221.492 1794.53 220.244 1794.96 218.958C1798.37 217.25 1801.27 217.615 1805.04 217.697Z" fill="#F8F5F0"/>
<path d="M1681.52 133.206C1679.7 137.445 1677.42 140.257 1673.95 143.294C1673.12 143.294 1672.29 143.294 1671.43 143.294C1673.35 138.83 1676.16 133.206 1681.52 133.206Z" fill="#ADAEAF"/>
<path d="M1857.94 234.089C1858.36 234.089 1858.77 234.089 1859.2 234.089C1859.2 237.002 1859.2 239.915 1859.2 242.916C1857.54 242.916 1855.87 242.916 1854.16 242.916C1854.16 240.835 1854.16 238.755 1854.16 236.611C1855.41 237.235 1855.41 237.235 1856.68 237.872C1857.1 236.624 1857.51 235.375 1857.94 234.089Z" fill="#1E1E1E"/>
<path d="M1870.57 218.956C1873.48 219.788 1876.39 220.621 1879.39 221.478C1878.15 223.351 1878.15 223.351 1876.87 225.261C1875.62 225.261 1874.38 225.261 1873.09 225.261C1872.26 223.18 1871.43 221.1 1870.57 218.956Z" fill="#F4F2EF"/>
</g>
<defs>
<clipPath id="clip0_446_67">
<rect width="1965" height="399" fill="white"/>
</clipPath>
</defs>
</svg>
